:version 1.10
:name ASF
:units
  mass 1
  length 1
  angle deg
:documentation
  ASF file generated by Kaydara
:root
  axis xyz
  order  tx ty tz rx ry rz
  position 0 0 0
  orientation 0 0 0
:bonedata
  begin
    id 1
    name RightUpLegDummy
    direction -1 2.30186e-007 8.31532e-007
    length 4.04083
    axis 0 0 0 xyz
  end
  begin
    id 2
    name RightUpLeg
    direction -0.000919234 -0.999985 0.00544864
    length 17.4221
    axis -3.80308 -0.00076134 -0.0523649 xyz
    dof rx ry rz
  end
  begin
    id 3
    name RightLeg
    direction -0.000919271 -0.999984 -0.00555045
    length 17.1239
    axis 4.00314 0.0181274 -0.183583 xyz
    dof rx ry rz
  end
  begin
    id 4
    name RightFoot
    direction -2.57843e-005 -4.04509e-007 1
    length 6.72091
    axis 8.18909e-005 -0.122003 -0.403008 xyz
    dof rx ry rz
  end
  begin
    id 5
    name RightToes
    direction 0.00116825 -0.014069 0.9999
    length 3.85082
    axis 0.000514414 0.540638 -0.356797 xyz
    dof rx ry rz
  end
  begin
    id 6
    name SpineDummy
    direction 0.0168869 0.966876 -0.254689
    length 6.99894
    axis 0 0 0 xyz
  end
  begin
    id 7
    name Spine
    direction -0.0132008 0.999903 0.00446247
    length 11.1999
    axis -0.00148109 0.00725429 0.756411 xyz
    dof rx ry rz
  end
  begin
    id 8
    name Spine1
    direction 0 0 0
    length 0
    axis -0.000934958 0.0245693 1.46543 xyz
    dof rx ry rz
  end
  begin
    id 9
    name HEadDummy
    direction -0.0255732 0.999672 0.00128215
    length 3.43865
    axis -0.000934958 0.0245693 1.46543 xyz
  end
  begin
    id 10
    name HEad
    direction -0.0472656 0.980052 0.19304
    length 5.12695
    axis -0.000934954 0.0245693 1.46543 xyz
    dof rx ry rz
  end
  begin
    id 11
    name LeftShoulder1Dummy
    direction 0.953098 0.301717 -0.023914
    length 3.68488
    axis -0.000934958 0.0245693 1.46543 xyz
  end
  begin
    id 12
    name LeftShoulder1
    direction 0.962466 0.271167 0.0112566
    length 3.13809
    axis -0.000934958 0.0245693 1.46543 xyz
    dof rx ry rz
  end
  begin
    id 13
    name LeftArm
    direction 0.999943 0.00455037 -0.00961766
    length 11.3419
    axis -23.1648 0.685459 1.22814 xyz
    dof rx ry rz
  end
  begin
    id 14
    name LeftForeArm
    direction 0.999332 0.0131969 0.0340885
    length 8.70632
    axis -9.90633 0.618216 0.0826942 xyz
    dof rx ry rz
  end
  begin
    id 15
    name LeftHand
    direction 0.994373 -0.0366703 0.0993905
    length 5.32135
    axis 0.00675269 0.680415 0.445699 xyz
    dof rx ry rz
  end
  begin
    id 16
    name RightShoulderDummy
    direction -0.967298 0.252589 -0.0230903
    length 3.68488
    axis -0.000934958 0.0245693 1.46543 xyz
  end
  begin
    id 17
    name RightShoulder
    direction -0.975062 0.221602 0.0120823
    length 3.13809
    axis 0.216257 0.0246515 1.45863 xyz
    dof rx ry rz
  end
  begin
    id 18
    name RightArm
    direction -0.99886 -0.00851186 -0.0469687
    length 10.3947
    axis -23.196 0.23503 -0.532632 xyz
    dof rx ry rz
  end
  begin
    id 19
    name RightForeArm
    direction -0.99909 0.00114866 0.0426317
    length 8.68355
    axis -9.91764 -0.134943 0.610517 xyz
    dof rx ry rz
  end
  begin
    id 20
    name RightHand
    direction -0.992888 -0.0489538 0.10852
    length 5.28593
    axis -0.00275396 -0.197403 0.246414 xyz
    dof rx ry rz
  end
  begin
    id 21
    name LeftUpLegDummy
    direction 1 -2.30186e-007 -8.31532e-007
    length 4.04083
    axis 0 0 0 xyz
  end
  begin
    id 22
    name LeftUpLeg
    direction -0.000920097 -1 2.79241e-006
    length 17.4221
    axis -3.48782 0.00143434 -0.0532288 xyz
    dof rx ry rz
  end
  begin
    id 23
    name LeftLeg
    direction -0.000920097 -1 2.7912e-006
    length 17.1239
    axis 3.68162 -0.00806512 -0.0529896 xyz
    dof rx ry rz
  end
  begin
    id 24
    name LeftFoot
    direction -2.57845e-005 -3.987e-007 1
    length 6.72091
    axis 3.02372e-005 -0.00147829 -0.214229 xyz
    dof rx ry rz
  end
  begin
    id 25
    name LeftToes
    direction 0.00813577 -0.00488255 0.999955
    length 3.85048
    axis 3.89895e-005 -0.0014783 -0.214229 xyz
    dof rx ry rz
  end
:hierarchy
  begin
    root RightUpLegDummy SpineDummy LeftUpLegDummy
    RightUpLegDummy RightUpLeg
    RightUpLeg RightLeg
    RightLeg RightFoot
    RightFoot RightToes
    SpineDummy Spine
    Spine Spine1
    Spine1 HEadDummy LeftShoulder1Dummy RightShoulderDummy
    HEadDummy HEad
    LeftShoulder1Dummy LeftShoulder1
    LeftShoulder1 LeftArm
    LeftArm LeftForeArm
    LeftForeArm LeftHand
    RightShoulderDummy RightShoulder
    RightShoulder RightArm
    RightArm RightForeArm
    RightForeArm RightHand
    LeftUpLegDummy LeftUpLeg
    LeftUpLeg LeftLeg
    LeftLeg LeftFoot
    LeftFoot LeftToes
  end

:SAMPLES-PER-SECOND 30
:FULLY-SPECIFIED
:DEGREES
46
root  -53.7951 34.7134 31.0528 -169.361 56.4277 -178.552
RightUpLeg  -8.0758 -14.1806 0.238147
RightLeg  6.61537 -0.442025 -0.0205929
RightFoot  2.59144 0.0108455 0.111507
RightToes  -21.2918 -0.0906076 -0.193048
Spine  -2.74751 -0.485298 0.39188
Spine1  -5.58362 -0.898016 1.3417
HEad  -63.5301 -11.6463 5.0541
LeftShoulder1  -1.94126e-019 -3.10601e-018 -2.51263e-017
LeftArm  -9.83508 25.5284 -83.1498
LeftForeArm  33.338 -17.3552 -2.91539
LeftHand  -0.34074 -0.863605 6.47171
RightShoulder  -4.96962e-017 0 -2.36833e-017
RightArm  -29.5811 -25.694 78.3414
RightForeArm  55.8302 14.0694 1.25869
RightHand  -0.325151 -1.07065 -8.72807
LeftUpLeg  -7.8634 5.35319 2.73105
LeftLeg  6.85484 14.6012 0.799716
LeftFoot  4.61926 -0.0455503 1.2979
LeftToes  -21.6996 1.48321e-006 1.01846e-007
47
root  -53.7913 34.7127 31.0582 -169.375 56.417 -178.558
RightUpLeg  -8.077 -14.1785 0.244352
RightLeg  6.64036 -0.451473 -0.0221897
RightFoot  2.5677 0.0108491 0.111455
RightToes  -21.2797 -0.0906076 -0.193048
Spine  -2.75311 -0.48364 0.397612
Spine1  -5.59511 -0.901315 1.35328
HEad  -63.3463 -11.6375 5.07185
LeftShoulder1  -1.94126e-019 -3.10601e-018 -2.51263e-017
LeftArm  -9.87851 25.5506 -83.1413
LeftForeArm  33.3562 -17.2744 -2.90215
LeftHand  -0.339473 -0.873026 6.48313
RightShoulder  -4.96962e-017 0 -2.36833e-017
RightArm  -29.5988 -25.6899 78.33
RightForeArm  55.8072 14.0586 1.26197
RightHand  -0.326971 -1.09555 -8.66969
LeftUpLeg  -7.85987 5.30828 2.74315
LeftLeg  6.87139 14.6675 0.807471
LeftFoot  4.56664 -0.0457205 1.29964
LeftToes  -21.4318 1.48321e-006 1.01846e-007
48
root  -53.7896 34.7124 31.0651 -169.392 56.4101 -178.564
RightUpLeg  -8.07376 -14.1624 0.249653
RightLeg  6.65595 -0.470271 -0.0232876
RightFoot  2.56232 0.0108552 0.111368
RightToes  -21.2667 -0.0906076 -0.193048
Spine  -2.75053 -0.482231 0.398946
Spine1  -5.58995 -0.891813 1.3565
HEad  -63.2482 -11.7551 5.09625
LeftShoulder1  -1.94126e-019 -3.10601e-018 -2.51263e-017
LeftArm  -9.93566 25.564 -83.1166
LeftForeArm  33.4128 -17.329 -2.90813
LeftHand  -0.339828 -0.881994 6.3881
RightShoulder  -4.96962e-017 0 -2.36833e-017
RightArm  -29.5583 -25.7036 78.3368
RightForeArm  55.7651 14.0744 1.2587
RightHand  -0.326841 -1.08449 -8.68145
LeftUpLeg  -7.85309 5.23047 2.75428
LeftLeg  6.87246 14.7367 0.811472
LeftFoot  4.59317 -0.0466116 1.31245
LeftToes  -21.5085 1.48321e-006 1.01846e-007
49
root  -53.7846 34.7124 31.0719 -169.357 56.3914 -178.464
RightUpLeg  -8.00191 -14.1283 0.31297
RightLeg  6.61378 -0.536364 -0.0263217
RightFoot  2.5803 0.0108642 0.111239
RightToes  -21.1643 -0.0906076 -0.193048
Spine  -2.72833 -0.490216 0.435109
Spine1  -5.54571 -0.906125 1.43125
HEad  -63.2072 -11.844 5.02193
LeftShoulder1  -1.94126e-019 -3.10601e-018 -2.51263e-017
LeftArm  -9.81369 25.5892 -83.1372
LeftForeArm  33.2687 -17.409 -2.91048
LeftHand  -0.337129 -0.837095 6.43131
RightShoulder  -4.96962e-017 0 -2.36833e-017
RightArm  -29.4621 -25.6938 78.2984
RightForeArm  55.7854 14.1282 1.24575
RightHand  -0.32768 -1.09056 -8.6484
LeftUpLeg  -7.79409 5.32425 2.82943
LeftLeg  6.84357 14.6306 0.798436
LeftFoot  4.6023 -0.0462712 1.30595
LeftToes  -21.5902 1.48321e-006 1.01846e-007
50
root  -53.7846 34.7127 31.0795 -169.387 56.425 -178.483
RightUpLeg  -8.01662 -14.0554 0.306014
RightLeg  6.63826 -0.579286 -0.0287638
RightFoot  2.5884 0.0108767 0.111061
RightToes  -21.1889 -0.0906076 -0.193048
Spine  -2.71576 -0.469519 0.430786
Spine1  -5.52029 -0.865864 1.42254
HEad  -63.1753 -12.0472 4.9541
LeftShoulder1  -1.94126e-019 -3.10601e-018 -2.51263e-017
LeftArm  -9.86626 25.5699 -83.11
LeftForeArm  33.3833 -17.4808 -2.92095
LeftHand  -0.336807 -0.925478 6.38869
RightShoulder  -4.96962e-017 0 -2.36833e-017
RightArm  -29.3478 -25.7073 78.3207
RightForeArm  55.7435 14.1349 1.24404
RightHand  -0.328291 -1.06085 -8.61779
LeftUpLeg  -7.78369 5.25858 2.82352
LeftLeg  6.84052 14.7304 0.802996
LeftFoot  4.61854 -0.0471864 1.31881
LeftToes  -21.4831 1.48321e-006 1.01846e-007
51
root  -53.7867 34.7131 31.0842 -169.395 56.4648 -178.457
RightUpLeg  -8.00223 -14.0281 0.317687
RightLeg  6.65763 -0.567348 -0.0283399
RightFoot  2.58806 0.010893 0.110827
RightToes  -21.209 -0.0906076 -0.193048
Spine  -2.70482 -0.445704 0.443826
Spine1  -5.49831 -0.818968 1.44841
HEad  -63.1027 -12.2057 4.88984
LeftShoulder1  -1.94126e-019 -3.10601e-018 -2.51263e-017
LeftArm  -9.64609 25.5603 -83.0883
LeftForeArm  33.1426 -17.5434 -2.92557
LeftHand  -0.335134 -0.847154 6.37612
RightShoulder  -4.96962e-017 0 -2.36833e-017
RightArm  -29.2798 -25.7329 78.3144
RightForeArm  55.7489 14.1522 1.23968
RightHand  -0.327543 -1.05708 -8.62937
LeftUpLeg  -7.7533 5.34207 2.84235
LeftLeg  6.84607 14.6742 0.801401
LeftFoot  4.62664 -0.0471148 1.31615
LeftToes  -21.5816 1.48321e-006 1.01846e-007
52
root  -53.7898 34.7135 31.0908 -169.408 56.4827 -178.471
RightUpLeg  -8.01284 -14.0524 0.316599
RightLeg  6.65457 -0.522536 -0.0259863
RightFoot  2.59764 0.0109138 0.110531
RightToes  -21.2256 -0.0906076 -0.193048
Spine  -2.70501 -0.428501 0.44228
Spine1  -5.49844 -0.785937 1.445
HEad  -63.1549 -12.4028 4.8681
LeftShoulder1  -1.94126e-019 -3.10601e-018 -2.51263e-017
LeftArm  -9.69924 25.5525 -83.0843
LeftForeArm  33.1823 -17.526 -2.92306
LeftHand  -0.333646 -0.877375 6.40802
RightShoulder  -4.96962e-017 0 -2.36833e-017
RightArm  -29.2288 -25.7617 78.3298
RightForeArm  55.7467 14.1221 1.24569
RightHand  -0.326394 -1.05043 -8.64671
LeftUpLeg  -7.76541 5.31727 2.83959
LeftLeg  6.86266 14.7228 0.808228
LeftFoot  4.63436 -0.0473185 1.3176
LeftToes  -21.5536 1.48321e-006 1.01846e-007
53
root  -53.7932 34.7139 31.0975 -169.412 56.4919 -178.479
RightUpLeg  -8.02669 -14.1068 0.320335
RightLeg  6.64988 -0.457999 -0.0226025
RightFoot  2.59861 0.0109394 0.110164
RightToes  -21.1998 -0.0906076 -0.193048
Spine  -2.70533 -0.415794 0.438708
Spine1  -5.49894 -0.761965 1.43763
HEad  -63.1889 -12.7395 4.85663
LeftShoulder1  -1.94126e-019 -3.10601e-018 -2.51263e-017
LeftArm  -9.7898 25.5595 -83.0884
LeftForeArm  33.2496 -17.4986 -2.91761
LeftHand  -0.332241 -0.890277 6.45935
RightShoulder  -4.96962e-017 0 -2.36833e-017
RightArm  -29.2024 -25.7898 78.3731
RightForeArm  55.7782 14.0769 1.25133
RightHand  -0.324423 -1.09014 -8.68249
LeftUpLeg  -7.79093 5.34419 2.83934
LeftLeg  6.88851 14.6993 0.813539
LeftFoot  4.63451 -0.0476138 1.32028
LeftToes  -21.5459 1.48321e-006 1.01846e-007
54
root  -53.7995 34.7148 31.1064 -169.422 56.4716 -178.492
RightUpLeg  -8.03817 -14.1277 0.327702
RightLeg  6.64187 -0.462455 -0.0227687
RightFoot  2.61017 0.0109704 0.109721
RightToes  -21.172 -0.0906076 -0.193048
Spine  -2.70102 -0.405355 0.431709
Spine1  -5.48994 -0.743121 1.42463
HEad  -63.4033 -13.0446 4.83436
LeftShoulder1  -1.94126e-019 -3.10601e-018 -2.51263e-017
LeftArm  -9.77842 25.5528 -83.0933
LeftForeArm  33.3005 -17.3963 -2.90295
LeftHand  -0.333475 -0.90608 6.40888
RightShoulder  -4.96962e-017 0 -2.36833e-017
RightArm  -29.1451 -25.8269 78.4343
RightForeArm  55.8397 14.0233 1.25772
RightHand  -0.323028 -1.08807 -8.64066
LeftUpLeg  -7.82072 5.35287 2.83813
LeftLeg  6.90355 14.6747 0.816025
LeftFoot  4.65086 -0.0478962 1.32257
LeftToes  -21.5838 1.48321e-006 1.01846e-007
55
root  -53.82 34.7328 31.1132 -169.438 56.4451 -178.575
RightUpLeg  -7.967 -14.0857 0.295381
RightLeg  6.32109 -0.528176 -0.0232109
RightFoot  2.76479 0.0110073 0.109195
RightToes  -21.1009 -0.0906076 -0.193048
Spine  -2.67601 -0.333432 0.580501
Spine1  -5.43463 -0.599571 1.74709
HEad  -63.9399 -13.5576 4.27575
LeftShoulder1  -1.94126e-019 -3.10601e-018 -2.51263e-017
LeftArm  -9.60863 25.2654 -83.6607
LeftForeArm  33.1125 -16.2103 -2.66904
LeftHand  -0.336119 -0.904735 6.32511
RightShoulder  -4.96962e-017 0 -2.36833e-017
RightArm  -29.335 -25.6841 78.0229
RightForeArm  56.4173 13.8438 1.27463
RightHand  -0.331538 -1.04161 -8.78188
LeftUpLeg  -7.74756 5.37257 2.77241
LeftLeg  6.54956 14.6402 0.724491
LeftFoot  4.83692 -0.0513317 1.37367
LeftToes  -21.4727 1.48321e-006 1.01846e-007
